<?xml version="1.0" standalone="no"?>
<!DOCTYPE svg PUBLIC "-//W3C//DTD SVG 20010904//EN"
 "http://www.w3.org/TR/2001/REC-SVG-20010904/DTD/svg10.dtd">
<svg version="1.0" xmlns="http://www.w3.org/2000/svg"
 width="512.000000pt" height="512.000000pt" viewBox="0 0 512.000000 512.000000"
 preserveAspectRatio="xMidYMid meet">

<g transform="translate(0.000000,512.000000) scale(0.100000,-0.100000)"
fill="#fff" stroke="none">
<path d="M4043 5105 c-134 -24 -239 -68 -365 -152 -86 -58 -153 -130 -167
-179 -31 -111 -35 -105 566 -706 363 -362 540 -532 565 -543 46 -19 108 -19
151 -1 60 26 168 158 230 281 41 83 76 210 86 311 20 219 -33 428 -152 604
-42 61 -151 175 -212 219 -201 148 -462 210 -702 166z"/>
<path d="M768 5100 c-374 -68 -666 -350 -743 -716 -21 -99 -21 -275 -1 -370
37 -173 132 -352 242 -456 62 -58 153 -65 225 -19 24 16 281 267 571 557 573
576 559 559 544 657 -17 110 -240 272 -452 328 -88 23 -306 34 -386 19z"/>
<path d="M2375 4383 c-90 -8 -246 -36 -345 -63 -358 -98 -662 -278 -917 -544
-255 -265 -418 -559 -508 -916 -74 -295 -75 -654 -4 -945 77 -313 236 -622
439 -852 33 -37 58 -73 55 -80 -2 -6 -124 -172 -271 -368 -262 -349 -268 -357
-272 -410 -2 -30 -2 -65 2 -79 15 -62 104 -125 175 -126 19 0 55 10 79 21 38
19 77 66 309 375 l264 353 88 -58 c430 -282 959 -384 1476 -285 234 45 493
150 693 280 45 30 87 54 91 54 5 0 120 -148 256 -330 136 -181 264 -345 285
-364 42 -38 103 -53 160 -41 64 14 140 109 139 175 0 55 -35 108 -293 452
l-268 358 51 56 c211 231 384 566 455 884 36 161 49 279 49 465 -1 715 -387
1378 -1008 1730 -314 178 -656 267 -1005 263 -74 -1 -153 -3 -175 -5z m227
-733 c50 -14 97 -55 119 -105 17 -37 19 -79 19 -610 0 -371 -4 -583 -11 -608
-12 -43 -554 -774 -608 -819 -135 -114 -336 18 -286 188 7 25 106 166 271 384
l259 345 5 550 c4 487 7 553 22 580 23 43 60 75 105 90 47 17 58 18 105 5z"/>
</g>
</svg>
